<?xml version="1.0" encoding="utf-8"?>
<!-- Generator: Adobe Illustrator 24.2.0, SVG Export Plug-In . SVG Version: 6.00 Build 0)  -->
<svg version="1.1" id="Layer_1" xmlns="http://www.w3.org/2000/svg" xmlns:xlink="http://www.w3.org/1999/xlink" x="0px" y="0px"
	 viewBox="0 0 672 150" style="enable-background:new 0 0 672 150;" xml:space="preserve">
<style type="text/css">
	.st0{fill:#75FBFD;}
	.st1{fill:none;}
	.st2{font-family:'MyriadPro-Regular';}
	.st3{font-size:44px;}
</style>
<path class="st0" d="M120,0v17h6V0H120z M120,34v17h6V34H120z M120,102v17h6v-17H120z M120,136v14h6v-14H120z"/>
<polygon class="st0" points="132,75 132,81 126,81 126,85 120,85 120,68 126,68 126,75 "/>
<path class="st0" d="M552,81.2h-9.8v-6h3.8V68h6V81.2z M525.2,81.1h-17v-6h17V81.1z M491.2,81.1h-17v-6h17V81.1z M457.2,81.1h-17v-6
	h17V81.1z M423.2,81H410v-6h13.2V81z M552,51h-6V34h6V51z M552,17h-6V0h6V17z"/>
<path class="st0" d="M149,75v6h17v-6H149z M183,75v6h17v-6H183z M217,75v6h17v-6H217z M251,75v6h17v-6H251z"/>
<rect x="306" y="60" class="st1" width="60" height="59"/>
<text transform="matrix(1 0 0 1 309.0063 91.2393)" class="st0 st2 st3">OR</text>
</svg>
