<?xml version="1.0" encoding="utf-8"?>
<!-- Generator: Adobe Illustrator 24.2.0, SVG Export Plug-In . SVG Version: 6.00 Build 0)  -->
<svg version="1.1" id="Layer_1" xmlns="http://www.w3.org/2000/svg" xmlns:xlink="http://www.w3.org/1999/xlink" x="0px" y="0px"
	 viewBox="0 0 216 120" style="enable-background:new 0 0 216 120;" xml:space="preserve">
<style type="text/css">
	.st0{fill:#75FBFD;}
	.st1{fill:none;}
	.st2{fill:#CC3333;}
	.st3{font-family:'MyriadPro-Regular';}
	.st4{font-size:48px;}
</style>
<g>
	<path class="st0" d="M63.2,74.1V72l10.6-28.5h6.1L90.6,72v2h-6.2l-2.4-7.2H71.4L68.9,74L63.2,74.1z M73.3,61.8H80l-3.3-9.9
		L73.3,61.8z"/>
	<path class="st0" d="M128.9,74.1V43.5h13c5.6,0,9,3,9,8.5c0.2,2.6-1.1,5.1-3.4,6.3c3,1.1,4.9,4.1,4.6,7.3c0,5.7-3.3,8.6-9.1,8.6
		H128.9z M135.1,56.2h6.4c1.8,0,3.1-1.2,3.1-3.7s-1.4-3.6-3.1-3.6h-6.4V56.2z M135.1,68.7h7.6c1.8,0,3.1-1.2,3.1-3.7
		s-1.4-3.6-3.1-3.6h-7.6V68.7z"/>
</g>
<rect x="87.6" y="38.2" class="st1" width="45" height="43.7"/>
<text transform="matrix(1 0 0 1 95.7763 72.2401)" class="st2 st3 st4">&gt;</text>
</svg>
