<?xml version="1.0" encoding="utf-8"?>
<!-- Generator: Adobe Illustrator 24.2.0, SVG Export Plug-In . SVG Version: 6.00 Build 0)  -->
<svg version="1.1" id="Layer_1" xmlns="http://www.w3.org/2000/svg" xmlns:xlink="http://www.w3.org/1999/xlink" x="0px" y="0px"
	 viewBox="0 0 672 150" style="enable-background:new 0 0 672 150;" xml:space="preserve">
<style type="text/css">
	.st0{fill:#75FBFD;}
	.st1{fill:none;}
	.st2{fill:#CC3333;}
	.st3{font-family:'ArialMT';}
	.st4{font-size:48px;}
</style>
<g id="Layer_1_1_">
	<path class="st0" d="M120,0v17h6V0H120z M120,34v17h6V34H120z M120,102v17h6v-17H120z M120,136v14h6v-14H120z"/>
	<path class="st0" d="M552,81.2h-9.8v-6h3.8V68h6V81.2z M525.2,81.1h-17v-6h17V81.1z M491.2,81.1h-17v-6h17V81.1z M457.2,81.1h-17
		v-6h17V81.1z M423.2,81h-17v-6h17V81z M552,51h-6V34h6V51z M552,17h-6V0h6V17z"/>
	<path class="st0" d="M154,75v6h17v-6H154z M188,75v6h17v-6H188z M222,75v6h17v-6H222z M256,75v6h17v-6H256z"/>
	<polygon class="st0" points="137,75 137,81 126,81 126,85 120,85 120,68 126,68 126,75 	"/>
	<g>
		<path class="st0" d="M281.2,94v-2.6L294.3,56h7.5L315,91.4V94h-7.7l-3-8.9h-13l-3.2,8.9H281.2z M293.7,78.7h8.4L298,66.4
			L293.7,78.7z"/>
		<path class="st0" d="M362.6,94V56h16c7,0,11.2,3.7,11.2,10.5c0.2,3.2-1.4,6.3-4.2,7.8c3.7,1.4,6,5.1,5.8,9c0,7-4.1,10.7-11.2,10.7
			H362.6z M370.3,71.8h7.9c2.2,0,3.9-1.5,3.9-4.5s-1.7-4.5-3.9-4.5h-7.9V71.8z M370.3,87.3h9.5c2.2,0,3.9-1.5,3.9-4.6
			s-1.7-4.5-3.9-4.5h-9.5V87.3z"/>
	</g>
</g>
<g id="Layer_2_1_">
	<rect x="323.5" y="57.2" class="st1" width="35.1" height="41.4"/>
	<text transform="matrix(1 0 0 1 326.8154 91.2722)" class="st2 st3 st4">&gt;</text>
</g>
</svg>
